<svg xmlns="http://www.w3.org/2000/svg" viewBox="0 0 4546.36 637.51"><defs><style>.cls-1{fill:#453dde;}</style></defs><g id="Layer_2" data-name="Layer 2"><g id="Layer_1-2" data-name="Layer 1"><path d="M1186.84,621.32H1004.89L878,446.46H816.71V621.32H651.62V0H816.71V333.74h54.15L979.15,158.88h181.07l-142,230.78Z"/><path d="M1566.73,621.32H1428.27q-49.73,0-84.32-35.06t-34.62-83.88V270.72h-86.1V158.88h86.1V39.94h165.09V158.88h118.94V270.72H1474.42V482.85a24.74,24.74,0,0,0,7.55,18.2q7.53,7.54,19.08,7.54h65.68Z"/><path d="M2157.87,621.32H1794q-48.82,0-83.88-35.06T1675,502.38V277.82q0-49.69,35.06-84.32T1794,158.88h257.4q49.69,0,84.77,34.62t35.06,84.32V439.36H1840.11v43.49a24.09,24.09,0,0,0,8,18.2,26.3,26.3,0,0,0,18.64,7.54h291.13ZM2018.52,340.84V291.13q0-11.52-7.55-19.08t-19.08-7.55H1866.74a26.35,26.35,0,0,0-18.64,7.55,25.12,25.12,0,0,0-8,19.08v49.71Z"/><path d="M2692.2,621.32H2387.75q-48.83,0-83.88-35.06t-35.06-83.88V277.82q0-49.69,35.06-84.32t83.88-34.62H2692.2V270.72H2460.53a27.31,27.31,0,0,0-26.62,26.63v185.5a24.09,24.09,0,0,0,8,18.2,26.26,26.26,0,0,0,18.63,7.54H2692.2Z"/><path d="M3302,621.32h-165.1v-324a27.31,27.31,0,0,0-26.63-26.63H2978a27.31,27.31,0,0,0-26.63,26.63v324H2786.28V0h165.09V211.25l53.26-52.37H3183q48.8,0,83.88,34.62T3302,277.82Z"/><path d="M3927.72,621.32H3762.63v-324A27.31,27.31,0,0,0,3736,270.72H3603.75a27.31,27.31,0,0,0-26.63,26.63v324H3412V158.88h165.09v52.37l53.25-52.37h178.41q48.81,0,83.88,34.62t35.06,84.32Z"/><path d="M4427.43,621.32H4149.61q-48.82,0-83.88-35.06t-35.06-83.88V277.82q0-49.69,35.06-84.32t83.88-34.62h277.82q48.8,0,83.87,34.62t35.06,84.32V502.38q0,48.82-35.06,83.88T4427.43,621.32Zm-72.79-112.73a26.28,26.28,0,0,0,18.64-7.54,24.09,24.09,0,0,0,8-18.2V297.35a27.31,27.31,0,0,0-26.63-26.63H4222.39a27.31,27.31,0,0,0-26.63,26.63v185.5a24.13,24.13,0,0,0,8,18.2,26.3,26.3,0,0,0,18.64,7.54Z"/><path class="cls-1" d="M13.13,637.51h184.5a13.1,13.1,0,0,0,9.8-4.41L374.11,445l37.73-42.58A13.1,13.1,0,0,0,402,380.59H217.54a13.12,13.12,0,0,0-9.81,4.41L3.32,615.72A13.1,13.1,0,0,0,13.13,637.51Z"/><path class="cls-1" d="M72.86,52.46A13.11,13.11,0,0,0,62.82,74L267.34,317.72l9.32,11.11a13.14,13.14,0,0,0,10,4.68H467a13.11,13.11,0,0,0,9.81-4.42h0A13.1,13.1,0,0,0,477,312L377.49,193.39,263.17,57.14a13.14,13.14,0,0,0-10-4.68Z"/></g></g></svg>